<svg xmlns="http://www.w3.org/2000/svg" version="1.1" xmlns:xlink="http://www.w3.org/1999/xlink" xmlns:svgjs="http://svgjs.dev/svgjs" width="128" height="128" viewBox="0 0 128 128"><g transform="matrix(0.8046875,0,0,0.8046875,12.333870967741937,14.898603690091058)"><svg viewBox="0 0 155 148" data-background-color="#ffffff" preserveAspectRatio="xMidYMid meet" height="122" width="128" xmlns="http://www.w3.org/2000/svg" xmlns:xlink="http://www.w3.org/1999/xlink"><g id="tight-bounds" transform="matrix(1,0,0,1,0.25,0.023305084745743443)"><svg viewBox="0 0 154.5 147.95338983050848" height="147.95338983050848" width="154.5"><g><svg viewBox="0 0 154.5 147.95338983050848" height="147.95338983050848" width="154.5"><g><svg viewBox="0 0 154.5 147.95338983050848" height="147.95338983050848" width="154.5"><g id="textblocktransform"><svg viewBox="0 0 154.5 147.95338983050848" height="147.95338983050848" width="154.5" id="textblock"><g><svg viewBox="0 0 154.5 147.95338983050848" height="147.95338983050848" width="154.5"><g transform="matrix(1,0,0,1,0,0)"><svg width="154.5" viewBox="-7.7 -37.65 41.300000000000004 39.55" height="147.95338983050848" data-palette-color="#4b91f1"><path d="M21.5-31.35L21.75-31.15Q21.75-31.05 21.68-30.93 21.6-30.8 20.2-28.1L20.2-28.1Q18.65-25.2 12.05-12.95L12.05-12.95Q19.45-15.7 25.3-21.18 31.15-26.65 31.15-30.8L31.15-30.8Q31.15-33.05 28.95-34.5 26.75-35.95 22.3-35.95 17.85-35.95 12.73-34.08 7.6-32.2 3.7-29.6-0.2-27-2.83-24.25-5.45-21.5-5.45-19.75L-5.45-19.75Q-5.45-17.8-2.33-17.8 0.8-17.8 4.83-19.88 8.85-21.95 12.05-25.4L12.05-25.4Q12.6-26.05 12.75-26.05L12.75-26.05Q13.1-26.05 13.1-25.7L13.1-25.7Q13.1-25.6 12.75-25L12.75-25Q11.1-22.5 5.43-19.13-0.25-15.75-3.98-15.75-7.7-15.75-7.7-18.1L-7.7-18.1Q-7.7-20.2-4.73-23.53-1.75-26.85 2.7-30 7.15-33.15 13.05-35.4 18.95-37.65 23.93-37.65 28.9-37.65 31.25-36.08 33.6-34.5 33.6-32L33.6-32Q33.6-27.65 28.08-22.1 22.55-16.55 14.75-13.2L14.75-13.2Q19.8-13.15 23.15-8.83 26.5-4.5 26.55 1.2L26.55 1.2Q26.55 1.9 26.3 1.9L26.3 1.9Q25.9 1.9 25.75 1.03 25.6 0.15 25.4-0.7 25.2-1.55 24.18-3.7 23.15-5.85 21.78-7.5 20.4-9.15 17.8-10.5 15.2-11.85 11.95-11.85L11.95-11.85 11.4-11.85Q7.8-5.3 5.35-1L5.35-1Q5.05-0.35 4.25 0 3.45 0.35 3.03 0.35 2.6 0.35 2.6 0.1L2.6 0.1 8.75-11.1Q6.75-10.6 4.65-10.35L4.65-10.35Q3.75-10.35 3.75-10.65L3.75-10.65Q3.75-11.2 4.3-11.25L4.3-11.25Q6.6-11.4 9.3-12.1L9.3-12.1 19.35-30.4Q19.5-30.8 20.25-31.08 21-31.35 21.5-31.35L21.5-31.35Z" opacity="1" transform="matrix(1,0,0,1,0,0)" fill="#4b91f1" class="undefined-text-0" data-fill-palette-color="primary" id="text-0"></path></svg></g></svg></g></svg></g></svg></g><g></g></svg></g><defs></defs></svg><rect width="154.5" height="147.95338983050848" fill="none" stroke="none" visibility="hidden"></rect></g></svg></g></svg>