<svg xmlns="http://www.w3.org/2000/svg" version="1.1" xmlns:xlink="http://www.w3.org/1999/xlink" xmlns:svgjs="http://svgjs.dev/svgjs" width="1000" height="1000" viewBox="0 0 1000 1000"><rect width="1000" height="1000" fill="#ffffff"></rect><g transform="matrix(0.7,0,0,0.7,150.7238943038202,94.67846153846153)"><svg viewBox="0 0 213 247" data-background-color="#ffffff" preserveAspectRatio="xMidYMid meet" height="1159" width="1000" xmlns="http://www.w3.org/2000/svg" xmlns:xlink="http://www.w3.org/1999/xlink"><g id="tight-bounds" transform="matrix(1,0,0,1,-0.22027042512641515,-0.09999999999999432)"><svg viewBox="0 0 213.4405310157419 247.2" height="247.2" width="213.4405310157419"><g><svg viewBox="0 0 395.52 458.07862046964726" height="247.2" width="213.4405310157419"><g transform="matrix(1,0,0,1,0,264.8936945310673)"><svg viewBox="0 0 395.52 193.18492593857994" height="193.18492593857994" width="395.52"><g id="textblocktransform"><svg viewBox="0 0 395.52 193.18492593857994" height="193.18492593857994" width="395.52" id="textblock"><g><svg viewBox="0 0 395.52 104.19471798274716" height="104.19471798274716" width="395.52"><g transform="matrix(1,0,0,1,0,0)"><svg width="395.52" viewBox="-7.699999809265137 -37.650001525878906 150.67999267578125 39.70000076293945" height="104.19471798274716" data-palette-color="#4b91f1"><path d="M21.5-31.35L21.75-31.15Q21.75-31.05 21.68-30.93 21.6-30.8 20.2-28.1L20.2-28.1Q18.65-25.2 12.05-12.95L12.05-12.95Q19.45-15.7 25.3-21.18 31.15-26.65 31.15-30.8L31.15-30.8Q31.15-33.05 28.95-34.5 26.75-35.95 22.3-35.95 17.85-35.95 12.73-34.08 7.6-32.2 3.7-29.6-0.2-27-2.83-24.25-5.45-21.5-5.45-19.75L-5.45-19.75Q-5.45-17.8-2.33-17.8 0.8-17.8 4.83-19.88 8.85-21.95 12.05-25.4L12.05-25.4Q12.6-26.05 12.75-26.05L12.75-26.05Q13.1-26.05 13.1-25.7L13.1-25.7Q13.1-25.6 12.75-25L12.75-25Q11.1-22.5 5.43-19.13-0.25-15.75-3.98-15.75-7.7-15.75-7.7-18.1L-7.7-18.1Q-7.7-20.2-4.73-23.53-1.75-26.85 2.7-30 7.15-33.15 13.05-35.4 18.95-37.65 23.93-37.65 28.9-37.65 31.25-36.08 33.6-34.5 33.6-32L33.6-32Q33.6-27.65 28.08-22.1 22.55-16.55 14.75-13.2L14.75-13.2Q19.8-13.15 23.15-8.83 26.5-4.5 26.55 1.2L26.55 1.2Q26.55 1.9 26.3 1.9L26.3 1.9Q25.9 1.9 25.75 1.03 25.6 0.15 25.4-0.7 25.2-1.55 24.18-3.7 23.15-5.85 21.78-7.5 20.4-9.15 17.8-10.5 15.2-11.85 11.95-11.85L11.95-11.85 11.4-11.85Q7.8-5.3 5.35-1L5.35-1Q5.05-0.35 4.25 0 3.45 0.35 3.03 0.35 2.6 0.35 2.6 0.1L2.6 0.1 8.75-11.1Q6.75-10.6 4.65-10.35L4.65-10.35Q3.75-10.35 3.75-10.65L3.75-10.65Q3.75-11.2 4.3-11.25L4.3-11.25Q6.6-11.4 9.3-12.1L9.3-12.1 19.35-30.4Q19.5-30.8 20.25-31.08 21-31.35 21.5-31.35L21.5-31.35ZM29-0.65L29-0.65Q29.45-0.65 34.02-4.63 38.6-8.6 39.4-8.6 40.2-8.6 40.2-7.9L40.2-7.9Q40.2-7.35 39.2-6.2 38.2-5.05 37.22-3.7 36.25-2.35 36.25-1.3L36.25-1.3Q36.25-0.75 37.07-0.75 37.9-0.75 40-1.73 42.1-2.7 43.7-3.7L43.7-3.7 45.3-4.7Q45.35-4.6 45.35-4.3 45.35-4 44.9-3.8L44.9-3.8Q38.15 0.8 35.5 0.8L35.5 0.8Q34.2 0.8 34.2-0.6L34.2-0.6Q34.2-1.55 34.9-2.9 35.6-4.25 36.3-5.15L36.3-5.15 36.95-6.05Q34.7-4.35 32.3-2.23 29.9-0.1 28.65 0.98 27.4 2.05 26.9 2.05 26.4 2.05 26.4 1.33 26.4 0.6 28.75-3.7 31.1-8 34.17-12.98 37.25-17.95 40.62-22 44-26.05 45.75-26.05L45.75-26.05Q46.5-26.05 46.8-25.35L46.8-25.35Q46.95-25.1 46.95-24.75L46.95-24.75Q46.95-21.3 36.6-11.5L36.6-11.5Q34.65-9.6 32.8-8L32.8-8Q29-1.6 29-0.65ZM45.3-24.2L45.3-24.2Q45.3-24.7 45.05-24.7L45.05-24.7Q44.05-24.7 40.85-20.3 37.65-15.9 34.05-10.05L34.05-10.05Q45.3-20.3 45.3-24.2ZM48.65-0.75Q48.65-0.2 48.17 0.3 47.7 0.8 47.12 0.8 46.55 0.8 46.27 0.55 46 0.3 45.97-0.3 45.95-0.9 46.5-1.3 47.05-1.7 47.55-1.7L47.55-1.7Q48.65-1.7 48.65-0.75L48.65-0.75ZM55.84-16.5L55.84-16.5Q59.24-16.5 62.54-16.55L62.54-16.55Q67.89-23.4 69.84-23.4L69.84-23.4Q70.54-23.4 70.54-22.65L70.54-22.65Q70.54-20.25 67.04-16.65L67.04-16.65 70.84-16.7Q74.64-16.85 75.49-16.85 76.34-16.85 76.34-16.65L76.34-16.65Q76.34-15.7 75.04-15.65L75.04-15.65 65.64-15.25Q63.19-12.95 59.59-10.4L59.59-10.4Q55.79-4.15 55.79-1.9L55.79-1.9Q55.79-0.75 57.27-0.75 58.74-0.75 61.94-2.35L61.94-2.35 65.99-4.7Q66.04-4.6 66.04-4.3 66.04-4 65.59-3.8L65.59-3.8Q63.99-2.7 62.09-1.6L62.09-1.6Q58.04 0.45 55.89 0.45L55.89 0.45Q54.89 0.45 54.34 0.05 53.79-0.35 53.74-0.75L53.74-0.75 53.64-1.15Q53.64-2.85 55.94-6.88 58.24-10.9 61.39-15.1L61.39-15.1Q58.99-15 56.84-15 54.69-15 54.69-15.5L54.69-15.5Q54.69-16.45 55.84-16.5ZM68.99-21.6L68.99-21.6Q68.99-21.85 68.79-21.85L68.79-21.85Q67.64-21.85 63.69-16.6L63.69-16.6 66.19-16.6Q68.99-19.65 68.99-21.6ZM64.79-15.2L64.79-15.2Q63.19-15.2 62.64-15.15L62.64-15.15Q62.19-14.5 61.39-13.25 60.59-12 60.29-11.55L60.29-11.55Q62.89-13.45 64.79-15.2ZM70.69-0.5L70.69-0.5Q70.69-1.05 71.52-2.35 72.34-3.65 72.62-4 72.89-4.35 73.44-5.1L73.44-5.1Q67.49 0.3 65.24 0.3L65.24 0.3Q63.99 0.3 63.99-0.75L63.99-0.75Q63.99-2.25 69.04-9.2L69.04-9.2Q69.29-9.6 69.69-9.6L69.69-9.6Q70.84-9.25 70.84-9.1 70.84-8.95 70.54-8.5L70.54-8.5Q66.24-2.7 66.24-1.98 66.24-1.25 66.74-1.25L66.74-1.25Q68.14-1.25 71.72-4.48 75.29-7.7 76.89-9.8L76.89-9.8Q77.09-10.15 77.54-10.15L77.54-10.15Q78.54-9.95 78.54-9.75L78.54-9.75Q77.99-8.95 77.04-7.65 76.09-6.35 75.49-5.53 74.89-4.7 74.24-3.75L74.24-3.75Q72.99-2.05 72.74-1.25L72.74-1.25Q72.74-0.75 73.57-0.75 74.39-0.75 76.49-1.73 78.59-2.7 80.19-3.7L80.19-3.7 81.79-4.7Q81.84-4.6 81.84-4.3 81.84-4 81.39-3.8L81.39-3.8Q74.64 0.8 71.99 0.8L71.99 0.8Q70.69 0.8 70.69-0.5ZM80.34-3.8L80.34-3.8Q81.29-4.35 82.84-5.55L82.84-5.55Q86.64-8.55 86.89-8.55L86.89-8.55Q87.64-8.55 87.64-7.9 87.64-7.25 86.86-5.9 86.09-4.55 85.11-3.1 84.14-1.65 83.99-1.35L83.99-1.35Q84.04-1.3 84.21-1.3 84.39-1.3 86.19-2.63 87.99-3.95 89.94-5.43 91.89-6.9 92.24-7.13 92.59-7.35 92.89-7.35L92.89-7.35Q93.49-7.3 93.49-6.65L93.49-6.65Q93.49-6.4 91.79-4.13 90.09-1.85 90.09-1.2L90.09-1.2Q90.09-0.75 91.16-0.75 92.24-0.75 94.34-1.73 96.44-2.7 98.04-3.7L98.04-3.7 99.64-4.7Q99.69-4.6 99.69-4.3 99.69-4 99.24-3.8L99.24-3.8Q92.49 0.8 89.84 0.8L89.84 0.8Q88.29 0.8 88.29-0.4L88.29-0.4Q88.29-1.55 88.96-2.6 89.64-3.65 90.14-4.38 90.64-5.1 90.64-5.15L90.64-5.15Q88.34-3.5 85.19-1.2 82.04 1.1 81.64 1.1L81.64 1.1Q81.34 1.1 81.34 0.4 81.34-0.3 83.31-3.25 85.29-6.2 85.29-6.4 85.29-6.6 85.19-6.6L85.19-6.6 84.69-6.35 82.19-4.35Q81.94-4.15 81.24-3.7 80.54-3.25 80.36-3.25 80.19-3.25 80.19-3.48 80.19-3.7 80.34-3.8ZM107.14-15.25L107.14-15.25Q107.89-15.25 107.89-14.5 107.89-13.75 107.19-12.98 106.49-12.2 105.64-12.2L105.64-12.2Q104.94-12.2 104.94-13.18 104.94-14.15 105.74-14.7 106.54-15.25 107.14-15.25ZM102.44-8.65L102.44-8.65Q102.69-9.05 103.14-9.05 103.59-9.05 104.04-8.6L104.04-8.6Q104.04-8.4 103.39-7.7 102.74-7 101.19-4.58 99.64-2.15 99.64-1.35L99.64-1.35Q99.64-0.85 100.39-0.75L100.39-0.75Q101.39-0.75 103.49-1.73 105.59-2.7 107.19-3.7L107.19-3.7 108.79-4.7Q108.84-4.6 108.84-4.3 108.84-4 108.39-3.8L108.39-3.8Q101.64 0.8 98.99 0.8L98.99 0.8Q97.69 0.8 97.69-0.5 97.69-1.8 99.11-4.13 100.54-6.45 102.44-8.65ZM110.38-5.45L110.38-5.45Q107.98-3.25 107.33-3.25L107.33-3.25Q107.13-3.25 107.13-3.45 107.13-3.65 107.28-3.8L107.28-3.8Q108.48-4.45 110.08-5.9L110.08-5.9Q109.83-6.5 109.83-7.2L109.83-7.2Q109.83-8.9 111.58-10.45 113.33-12 114.53-12L114.53-12Q115.18-12 115.18-11.38 115.18-10.75 113.18-8.35L113.18-8.35Q112.98-8.1 112.73-7.85 112.48-7.6 112.21-7.28 111.93-6.95 111.78-6.8L111.78-6.8Q112.03-6.55 112.68-5.93 113.33-5.3 113.73-4.9L113.73-4.9Q114.83-3.8 114.83-2.15 114.83-0.5 112.78 0.73 110.73 1.95 108.51 1.95 106.28 1.95 106.28 0.63 106.28-0.7 108.33-1.8 110.38-2.9 112.63-3.3L112.63-3.3Q112.33-3.7 111.51-4.35 110.68-5 110.38-5.45ZM112.98-2.7Q111.28-2.5 109.78-1.78 108.28-1.05 108.28-0.08 108.28 0.9 109.66 0.9 111.03 0.9 112.11 0.25 113.18-0.4 113.18-1.2 113.18-2 112.98-2.7L112.98-2.7ZM111.43-7.2L111.43-7.2 112.73-8.6Q114.03-10.15 114.03-10.48 114.03-10.8 113.73-10.8L113.73-10.8Q112.88-10.8 111.98-9.98 111.08-9.15 111.08-8.38 111.08-7.6 111.43-7.2ZM126.13-15.25L126.13-15.25Q126.88-15.25 126.88-14.5 126.88-13.75 126.18-12.98 125.48-12.2 124.63-12.2L124.63-12.2Q123.93-12.2 123.93-13.18 123.93-14.15 124.73-14.7 125.53-15.25 126.13-15.25ZM121.43-8.65L121.43-8.65Q121.68-9.05 122.13-9.05 122.58-9.05 123.03-8.6L123.03-8.6Q123.03-8.4 122.38-7.7 121.73-7 120.18-4.58 118.63-2.15 118.63-1.35L118.63-1.35Q118.63-0.85 119.38-0.75L119.38-0.75Q120.38-0.75 122.48-1.73 124.58-2.7 126.18-3.7L126.18-3.7 127.78-4.7Q127.83-4.6 127.83-4.3 127.83-4 127.38-3.8L127.38-3.8Q120.63 0.8 117.98 0.8L117.98 0.8Q116.68 0.8 116.68-0.5 116.68-1.8 118.11-4.13 119.53-6.45 121.43-8.65ZM135.78-5.95L135.78-5.95Q135.48-5.95 135.48-6.3L135.48-6.3 135.63-6.65Q136.53-7.5 136.53-8.1L136.53-8.1Q136.53-8.85 135.73-8.85L135.73-8.85Q133.98-8.85 131-6.43 128.03-4 128.03-2.1L128.03-2.1Q128.03-1.3 129.08-1.3 130.13-1.3 131.5-2.18 132.88-3.05 133.85-3.93 134.83-4.8 134.93-4.8L134.93-4.8Q135.43-4.75 135.43-4.3L135.43-4.3Q135.43-4.1 134.65-3 133.88-1.9 133.88-1.25L133.88-1.25Q133.88-0.75 134.7-0.75 135.53-0.75 137.63-1.73 139.73-2.7 141.33-3.7L141.33-3.7 142.93-4.7Q142.98-4.6 142.98-4.3 142.98-4 142.53-3.8L142.53-3.8Q135.78 0.8 133.13 0.8L133.13 0.8Q131.83 0.8 131.83-0.5L131.83-0.5Q131.83-1.05 132.03-1.65L132.03-1.65Q131.68-1.25 129.95-0.43 128.23 0.4 126.88 0.4 125.53 0.4 125.53-0.85L125.53-0.85Q125.53-3.8 129.63-6.88 133.73-9.95 136.53-9.95L136.53-9.95Q138.18-9.95 138.18-8.55L138.18-8.55Q138.18-7.75 137.18-6.85 136.18-5.95 135.78-5.95Z" opacity="1" transform="matrix(1,0,0,1,0,0)" fill="#000000" class="undefined-text-0" data-fill-palette-color="primary" id="text-0"></path></svg></g></svg></g><g transform="matrix(1,0,0,1,0,128.79259022524218)"><svg viewBox="0 0 395.52 64.39233571333774" height="64.39233571333774" width="395.52"><g transform="matrix(1,0,0,1,0,0)"><svg width="395.52" viewBox="1.2999999523162842 -34.45000076293945 283.7799987792969 46.20000076293945" height="64.39233571333774" data-palette-color="#4b91f1"><path d="M5.4 0L1.3 0 12.1-31.4 16.85-31.4 27.4 0 23.3 0 20.65-8.05 8.15-8.05 5.4 0ZM14.4-26.65L9.15-11.1 19.65-11.1 14.4-26.65ZM47.5 0.6L47.5 0.6Q44.88 0.6 42.94-0.6 41-1.8 39.95-4.11 38.9-6.43 38.9-9.75L38.9-9.75 40.55-9.75Q40.55-7.53 41.48-6 42.4-4.48 43.89-3.69 45.38-2.9 47.05-2.9L47.05-2.9Q48.85-2.9 50.5-3.94 52.15-4.98 53.2-7 54.25-9.03 54.25-12L54.25-12Q54.25-14.85 53.29-16.88 52.33-18.9 50.7-19.98 49.08-21.05 47.1-21.05L47.1-21.05Q45.4-21.05 43.9-20.23 42.4-19.4 41.48-17.81 40.55-16.23 40.55-13.9L40.55-13.9 38.9-13.9Q38.9-17.38 40.05-19.74 41.2-22.1 43.18-23.3 45.15-24.5 47.6-24.5L47.6-24.5Q50.4-24.5 52.83-23 55.25-21.5 56.75-18.7 58.25-15.9 58.25-12L58.25-12Q58.25-8.05 56.74-5.23 55.23-2.4 52.78-0.9 50.33 0.6 47.5 0.6ZM40.55 11.75L36.65 11.75 36.65-23.9 39.9-23.9 40.55-18.3 40.55 11.75ZM79.6 0.6L79.6 0.6Q76.98 0.6 75.04-0.6 73.1-1.8 72.05-4.11 71-6.43 71-9.75L71-9.75 72.65-9.75Q72.65-7.53 73.58-6 74.5-4.48 75.99-3.69 77.48-2.9 79.15-2.9L79.15-2.9Q80.95-2.9 82.6-3.94 84.25-4.98 85.3-7 86.35-9.03 86.35-12L86.35-12Q86.35-14.85 85.39-16.88 84.43-18.9 82.8-19.98 81.18-21.05 79.2-21.05L79.2-21.05Q77.5-21.05 76-20.23 74.5-19.4 73.58-17.81 72.65-16.23 72.65-13.9L72.65-13.9 71-13.9Q71-17.38 72.15-19.74 73.3-22.1 75.28-23.3 77.25-24.5 79.7-24.5L79.7-24.5Q82.5-24.5 84.93-23 87.35-21.5 88.85-18.7 90.35-15.9 90.35-12L90.35-12Q90.35-8.05 88.84-5.23 87.33-2.4 84.88-0.9 82.43 0.6 79.6 0.6ZM72.65 11.75L68.75 11.75 68.75-23.9 72-23.9 72.65-18.3 72.65 11.75ZM104.75 0L100.85 0 100.85-34.1 104.75-34.1 104.75 0ZM119.93-29.55L119.93-29.55Q118.73-29.55 118.03-30.24 117.33-30.93 117.33-32.05L117.33-32.05Q117.33-33.15 118.03-33.8 118.73-34.45 119.93-34.45L119.93-34.45Q121.13-34.45 121.83-33.8 122.53-33.15 122.53-32.05L122.53-32.05Q122.53-30.93 121.83-30.24 121.13-29.55 119.93-29.55ZM121.88 0L117.98 0 117.98-23.95 121.88-23.95 121.88 0ZM143.9 0.6L143.9 0.6Q141.03 0.6 138.54-0.95 136.05-2.5 134.53-5.33 133-8.15 133-12L133-12Q133-15.95 134.53-18.75 136.05-21.55 138.54-23.03 141.03-24.5 143.9-24.5L143.9-24.5Q145.93-24.5 147.54-23.89 149.15-23.28 150.35-22.2 151.55-21.13 152.34-19.76 153.13-18.4 153.5-16.9L153.5-16.9 149.5-16.55Q148.88-18.63 147.41-19.84 145.95-21.05 143.85-21.05L143.85-21.05Q142.08-21.05 140.51-20.04 138.95-19.03 137.98-17.01 137-15 137-12L137-12Q137-9.22 137.89-7.19 138.78-5.15 140.33-4.03 141.88-2.9 143.85-2.9L143.85-2.9Q146.63-2.9 148.06-4.26 149.5-5.63 149.5-8.05L149.5-8.05 153.5-8.05Q153.5-5.55 152.33-3.6 151.15-1.65 148.99-0.53 146.83 0.6 143.9 0.6ZM182.38 0L178.98 0 178.48-5.25 178.48-15.5Q178.48-18.73 177.1-20.14 175.73-21.55 172.98-21.55L172.98-21.55Q171.43-21.55 170.16-21.1 168.9-20.65 168.16-19.71 167.43-18.78 167.43-17.3L167.43-17.3 163.08-17.3Q163.08-19.9 164.35-21.49 165.63-23.08 167.86-23.79 170.1-24.5 172.98-24.5L172.98-24.5Q175.73-24.5 177.85-23.58 179.98-22.65 181.18-20.64 182.38-18.63 182.38-15.4L182.38-15.4 182.38 0ZM170.83 0.6L170.83 0.6Q167.88 0.6 165.95-0.45 164.03-1.5 163.08-3.18 162.13-4.85 162.13-6.7L162.13-6.7Q162.13-9.13 163.34-10.65 164.55-12.18 166.65-12.89 168.75-13.6 171.38-13.6L171.38-13.6Q173.25-13.6 175.14-13.23 177.03-12.85 178.83-12.2L178.83-12.2 178.83-9.75Q177.33-10.35 175.44-10.7 173.55-11.05 171.98-11.05L171.98-11.05Q169.58-11.05 167.93-10.06 166.28-9.08 166.28-6.7L166.28-6.7Q166.28-4.95 167.54-3.7 168.8-2.45 171.58-2.45L171.58-2.45Q173.53-2.45 175.09-3.36 176.65-4.28 177.56-5.65 178.48-7.03 178.48-8.4L178.48-8.4 179.43-8.4Q179.43-6 178.39-3.95 177.35-1.9 175.43-0.65 173.5 0.6 170.83 0.6ZM201.93 0.6L201.93 0.6Q199.98 0.6 198.43-0.15 196.88-0.9 195.98-2.4 195.08-3.9 195.08-6.15L195.08-6.15 195.08-30.55 198.93-30.55 198.93-6.25Q198.93-2.55 202.38-2.55L202.38-2.55Q203.4-2.55 204.36-2.78 205.33-3 206.53-3.45L206.53-3.45 207.08-0.65Q205.8-0.1 204.54 0.25 203.28 0.6 201.93 0.6ZM206.48-21.2L191.23-21.2 191.23-23.9 206.48-23.9 206.48-21.2ZM218.45-29.55L218.45-29.55Q217.25-29.55 216.55-30.24 215.85-30.93 215.85-32.05L215.85-32.05Q215.85-33.15 216.55-33.8 217.25-34.45 218.45-34.45L218.45-34.45Q219.65-34.45 220.35-33.8 221.05-33.15 221.05-32.05L221.05-32.05Q221.05-30.93 220.35-30.24 219.65-29.55 218.45-29.55ZM220.4 0L216.5 0 216.5-23.95 220.4-23.95 220.4 0ZM242.68 0.6L242.68 0.6Q239.45 0.6 236.94-0.83 234.43-2.25 232.98-5.05 231.53-7.85 231.53-11.95L231.53-11.95Q231.53-16.07 232.98-18.86 234.43-21.65 236.94-23.08 239.45-24.5 242.68-24.5L242.68-24.5Q245.88-24.5 248.39-23.08 250.9-21.65 252.34-18.86 253.78-16.07 253.78-11.95L253.78-11.95Q253.78-7.85 252.34-5.05 250.9-2.25 248.39-0.83 245.88 0.6 242.68 0.6ZM242.58-2.8L242.58-2.8Q244.9-2.8 246.53-3.91 248.15-5.03 248.99-7.08 249.83-9.13 249.83-11.95L249.83-11.95Q249.83-16.23 248.05-18.69 246.28-21.15 242.78-21.15L242.78-21.15Q240.43-21.15 238.81-20.04 237.2-18.93 236.36-16.86 235.53-14.8 235.53-11.95L235.53-11.95Q235.53-7.73 237.31-5.26 239.1-2.8 242.58-2.8ZM285.08 0L281.23 0 281.23-14.05Q281.23-17.48 279.59-19.26 277.95-21.05 275.13-21.05L275.13-21.05Q272.98-21.05 271.4-19.88 269.83-18.7 268.98-16.51 268.13-14.33 268.13-11.3L268.13-11.3 266.63-11.3Q266.63-15.48 267.73-18.43 268.83-21.38 270.94-22.94 273.05-24.5 276.08-24.5L276.08-24.5Q278.9-24.5 280.91-23.24 282.93-21.98 284-19.63 285.08-17.28 285.08-14.05L285.08-14.05 285.08 0ZM268.13 0L264.23 0 264.23-23.9 267.58-23.9 268.13-18.4 268.13 0Z" opacity="1" transform="matrix(1,0,0,1,0,0)" fill="#000000" class="undefined-text-1" data-fill-palette-color="secondary" id="text-1"></path></svg></g></svg></g></svg></g></svg></g><g transform="matrix(1,0,0,1,89.91102497696136,0)"><svg viewBox="0 0 215.69795004607727 215.69795004607727" height="215.69795004607727" width="215.69795004607727"><g><svg></svg></g><g id="icon-0"><svg viewBox="0 0 215.69795004607727 215.69795004607727" height="215.69795004607727" width="215.69795004607727"><g><path d="M0 107.849c0-59.563 48.286-107.849 107.849-107.849 59.563 0 107.849 48.286 107.849 107.849 0 59.563-48.286 107.849-107.849 107.849-59.563 0-107.849-48.286-107.849-107.849zM107.849 206.302c54.374 0 98.453-44.079 98.453-98.453 0-54.374-44.079-98.453-98.453-98.453-54.374 0-98.453 44.079-98.453 98.453 0 54.374 44.079 98.453 98.453 98.453z" data-fill-palette-color="accent" fill="#000000" stroke="transparent"></path><ellipse rx="106.77048527280824" ry="106.77048527280824" cx="107.84897502303863" cy="107.84897502303863" fill="#000000" stroke="transparent" stroke-width="0" fill-opacity="1" data-fill-palette-color="accent"></ellipse></g><g transform="matrix(1,0,0,1,56.11373292970673,66.24001765428469)"><svg viewBox="0 0 103.47048418666381 83.21791473750791" height="83.21791473750791" width="103.47048418666381"><g><svg xmlns="http://www.w3.org/2000/svg" xmlns:xlink="http://www.w3.org/1999/xlink" version="1.1" x="0" y="0" viewBox="0 9.78600025177002 100.0003433227539 80.42699432373047" enable-background="new 0 0 100 100" xml:space="preserve" width="103.47048418666381" height="83.21791473750791" class="icon-s-0" data-fill-palette-color="quaternary" id="s-0"><path d="M49.942 52.994c13.552-0.488 27.103-0.977 40.653-1.465-2.527-4.177-3.159-7.831-7.989-8.461-7.229-0.94-14.458-1.883-21.688-2.826-14.023-1.827-28.05-3.654-42.075-5.48C20.101 36.792 39.724 53.361 49.942 52.994z" fill="#ffffff" data-fill-palette-color="quaternary"></path><path d="M0 9.786c4.391 7.257 26.615 23.072 32.953 23.886 17.33 2.231 34.657 4.46 51.986 6.688-3.393-5.607-4.18-9.35-10.312-10.959-8.904-2.341-17.812-4.683-26.717-7.023C31.94 18.182 15.97 13.984 0 9.786z" fill="#ffffff" data-fill-palette-color="quaternary"></path><path d="M63.108 66.207c10.413-2.219 20.826-4.439 31.241-6.66-2.028-3.346-2.034-5.359-5.827-5.189-6.158 0.273-12.314 0.549-18.471 0.822-11.343 0.506-22.686 1.014-34.028 1.518C37.298 58.064 54.94 67.947 63.108 66.207z" fill="#ffffff" data-fill-palette-color="quaternary"></path><path d="M87.682 90.213c5.725-3.719 7.262-7.721 10.519-13.807 3.651-6.824 1.257-7.844-2.821-14.596-0.417-0.688-5.842 0.232-6.453 0.904-0.745 0.818-0.248 5.455-0.294 6.496C88.315 76.211 87.998 83.213 87.682 90.213z" fill="#ffffff" data-fill-palette-color="quaternary"></path><path d="M86.35 63.447c-3.795 0.809-8.604 0.191-9.572 4.229-1.373 5.736-2.746 11.475-4.12 17.211C81.904 82.678 86.028 71.582 86.35 63.447z" fill="#ffffff" data-fill-palette-color="quaternary"></path><path d="M74.666 66.121c-9.148 1.953-8.956 4.611-12.879 13.18C68.007 78.711 73.811 71.941 74.666 66.121z" fill="#ffffff" data-fill-palette-color="quaternary"></path></svg></g></svg></g></svg></g></svg></g><g></g></svg></g><defs></defs></svg><rect width="213.4405310157419" height="247.2" fill="none" stroke="none" visibility="hidden"></rect></g></svg></g></svg>